# xmcd CD database file
#
# Track frame offsets:
#	150
#	18867
#	37410
#	57385
#	74187
#	92564
#	108732
#	119219
#	135251
#	150012
#	161652
#	177266
#
# Disc length: 2569 seconds
#
# Revision: 1
# Processed by: cddbd v1.5.2PL0 Copyright (c) Steve Scherf et al.
# Submitted via: jetAudio 7
#
DISCID=a70a070c
DTITLE=Desert Heat - Tail Lights and Love
DYEAR=1900
DGENRE=Country
TTITLE0=Anywhere But You
TTITLE1=Gasoline
TTITLE2=Arizona
TTITLE3=Tail Lights and Love
TTITLE4=Your Good Bye
TTITLE5=Spinning Wheel
TTITLE6=Thunder Road
TTITLE7=Wish it Was Me
TTITLE8=A Good Place
TTITLE9=HighWay 99
TTITLE10=Rain'n Whiskey
TTITLE11=Walkin'
EXTD=
EXTT0=
EXTT1=
EXTT2=
EXTT3=
EXTT4=
EXTT5=
EXTT6=
EXTT7=
EXTT8=
EXTT9=
EXTT10=
EXTT11=
PLAYORDER=
